<!-- icon666.com - MILLIONS vector ICONS FREE --><svg id="Layer_2" viewBox="0 0 33 33" xmlns="http://www.w3.org/2000/svg" xmlns:xlink="http://www.w3.org/1999/xlink" data-name="Layer 2"><linearGradient id="Orange_Yellow" gradientUnits="userSpaceOnUse" x1="5.402" x2="30.406" y1="31.139" y2="4.404"><stop offset="0" stop-color="#fff33b"></stop><stop offset=".04" stop-color="#fee72e"></stop><stop offset=".117" stop-color="#fed51b"></stop><stop offset=".196" stop-color="#fdca10"></stop><stop offset=".281" stop-color="#fdc70c"></stop><stop offset=".669" stop-color="#f3903f"></stop><stop offset=".888" stop-color="#ed683c"></stop><stop offset="1" stop-color="#e93e3a"></stop></linearGradient><linearGradient id="Orange_Yellow-2" x1="4.019" x2="29.023" xlink:href="#Orange_Yellow" y1="29.845" y2="3.11"></linearGradient><path d="m24.5 20.273a1 1 0 0 1 -.707-.293l-5.909-5.909a1.962 1.962 0 0 0 -2.768 0l-5.909 5.909a1 1 0 1 1 -1.414-1.414l5.907-5.909a3.961 3.961 0 0 1 5.6 0l5.909 5.909a1 1 0 0 1 -.707 1.707z" fill="url(#Orange_Yellow)"></path><path d="m16.5 31.5a15 15 0 1 1 15-15 15.017 15.017 0 0 1 -15 15zm0-28a13 13 0 1 0 13 13 13.015 13.015 0 0 0 -13-13z" fill="url(#Orange_Yellow-2)"></path></svg>